<?xml version="1.0" standalone="no"?>
<!DOCTYPE svg PUBLIC "-//W3C//DTD SVG 20010904//EN"
 "http://www.w3.org/TR/2001/REC-SVG-20010904/DTD/svg10.dtd">
<svg version="1.0" xmlns="http://www.w3.org/2000/svg"
 width="346.000000pt" height="346.000000pt" viewBox="0 0 346.000000 346.000000"
 preserveAspectRatio="xMidYMid meet">
<metadata>
Created by potrace 1.14, written by Peter Selinger 2001-2017
</metadata>
<g transform="translate(0.000000,346.000000) scale(0.100000,-0.100000)"
fill="#000000" stroke="none">
<path d="M2332 2839 c-112 -21 -146 -73 -149 -229 -4 -220 47 -270 272 -265
185 4 228 51 229 245 0 157 -29 216 -119 241 -50 14 -176 18 -233 8z"/>
<path d="M3112 2738 c-90 -10 -132 -34 -160 -88 l-23 -45 3 -562 c3 -553 3
-562 24 -590 44 -58 75 -68 224 -68 164 0 202 13 238 85 l22 44 -2 551 c-3
527 -4 552 -23 590 -30 60 -70 76 -210 88 -16 2 -58 0 -93 -5z"/>
<path d="M177 2733 c-1 0 -18 -3 -37 -4 -49 -5 -92 -30 -114 -69 -16 -28 -20
-53 -20 -135 0 -119 16 -159 79 -189 35 -18 64 -19 359 -20 l320 -1 1 -780 c0
-758 1 -781 20 -819 39 -77 93 -97 251 -92 121 3 167 22 198 82 21 38 21 55
26 824 l5 785 316 1 c314 1 317 1 365 25 58 29 74 68 74 174 0 92 -5 118 -26
154 -39 66 -7 64 -957 65 -472 1 -859 0 -860 -1z"/>
<path d="M2335 2126 c-70 -13 -107 -36 -130 -82 -19 -38 -20 -61 -22 -654 -2
-663 -2 -666 50 -718 36 -36 106 -51 223 -48 124 3 167 21 204 87 l25 44 1
592 c1 326 -2 613 -6 638 -14 95 -83 143 -215 148 -44 2 -102 -1 -130 -7z"/>
<path d="M3098 1149 c-75 -11 -112 -31 -143 -77 -63 -96 -48 -344 25 -405 37
-31 117 -49 220 -49 83 0 103 4 163 29 28 12 43 28 63 69 23 48 26 65 26 171
1 100 -2 125 -20 158 -24 47 -55 77 -97 93 -38 15 -163 21 -237 11z"/>
</g>
</svg>
